<?xml version="1.0" standalone="no"?>
<!DOCTYPE svg PUBLIC "-//W3C//DTD SVG 20010904//EN"
 "http://www.w3.org/TR/2001/REC-SVG-20010904/DTD/svg10.dtd">
<svg version="1.0" xmlns="http://www.w3.org/2000/svg"
 width="70.000000pt" height="70.000000pt" viewBox="0 0 70.000000 70.000000"
 preserveAspectRatio="xMidYMid meet">
<metadata>
Created by potrace 1.14, written by Peter Selinger 2001-2017
</metadata>
<g transform="translate(0.000000,70.000000) scale(0.100000,-0.100000)"
fill="#000000" stroke="none">
<path d="M124 636 c-5 -13 1 -329 10 -500 2 -43 9 -83 14 -88 7 -7 28 -8 59
-3 26 5 84 9 128 9 44 0 83 4 86 9 3 5 7 43 8 85 1 42 6 81 11 86 5 5 41 11
80 14 l71 5 -3 71 -3 71 -65 5 c-60 5 -65 7 -64 28 1 12 2 36 3 52 l1 30 85 0
86 0 -3 68 -3 67 -248 3 c-205 2 -248 0 -253 -12z"/>
</g>
</svg>
